<svg width="148" height="55" viewBox="0 0 148 55" fill="none" xmlns="http://www.w3.org/2000/svg">
<rect width="65" height="11" fill="#3168BA"/>
<rect x="65" width="83" height="11" fill="#EE2B3E"/>
<path d="M15.6867 30.1092V38H13.2659V24.9811H16.9156L19.244 32.2621C19.3487 32.6686 19.4565 33.0783 19.5674 33.491C19.6783 33.8975 19.7861 34.3041 19.8908 34.7106C19.9585 34.4766 20.0232 34.2456 20.0848 34.0177C20.1464 33.7836 20.208 33.5495 20.2696 33.3154C20.3374 33.0814 20.4051 32.8504 20.4729 32.6224L22.866 24.9811H26.4972V38H24.0764V30.1092C24.0764 29.9306 24.0826 29.5733 24.0949 29.0374C24.1134 28.4953 24.138 27.9071 24.1688 27.2726C23.9532 28.098 23.7622 28.8003 23.5959 29.3793C23.4358 29.9583 23.3033 30.4111 23.1986 30.7375L20.8517 38H18.9114L16.5645 30.7375L15.5758 27.2726C15.6128 27.9872 15.6405 28.5816 15.659 29.0559C15.6774 29.524 15.6867 29.8752 15.6867 30.1092ZM30.6603 33.5002C30.6603 34.4735 30.8389 35.2096 31.1962 35.7085C31.5596 36.2013 32.074 36.4477 32.7392 36.4477C33.1951 36.4477 33.5677 36.3492 33.8573 36.152C34.1529 35.9488 34.3593 35.65 34.4763 35.2558L36.9249 35.4683C36.2165 37.2793 34.7782 38.1848 32.6099 38.1848C31.1069 38.1848 29.9519 37.7413 29.145 36.8543C28.338 35.9611 27.9346 34.6614 27.9346 32.9551C27.9346 31.3042 28.3442 30.0353 29.1635 29.1483C29.9827 28.2613 31.1438 27.8178 32.6469 27.8178C34.0821 27.8178 35.1786 28.2951 35.9362 29.2499C36.6939 30.1985 37.0727 31.5907 37.0727 33.4263V33.5002H30.6603ZM34.5595 31.874C34.5102 31.0671 34.3162 30.4634 33.9774 30.063C33.6386 29.6565 33.1828 29.4532 32.6099 29.4532C32.0001 29.4532 31.5288 29.6657 31.1962 30.0907C30.8697 30.5158 30.6973 31.1102 30.6788 31.874H34.5595ZM43.2316 37.8522C42.6033 38.0616 41.8733 38.1663 41.0417 38.1663C40.2779 38.1663 39.6897 37.96 39.2769 37.5473C38.8642 37.1284 38.6579 36.497 38.6579 35.6531V29.7581H37.392V28.0026H38.7872L39.6003 25.6556H41.2265V28.0026H43.1207V29.7581H41.2265V34.9509C41.2265 35.4375 41.3189 35.7979 41.5037 36.0319C41.6885 36.2598 41.975 36.3738 42.363 36.3738C42.5478 36.3738 42.8373 36.3307 43.2316 36.2444V37.8522ZM46.8125 33.0937V38H44.2162V30.3495C44.2162 29.8012 44.2069 29.3454 44.1884 28.982C44.1761 28.6124 44.1607 28.2859 44.1422 28.0026H46.6185C46.6308 28.058 46.6432 28.1812 46.6555 28.3721C46.6678 28.5631 46.6801 28.7787 46.6924 29.0189C46.7047 29.253 46.714 29.4748 46.7201 29.6842C46.7325 29.8936 46.7386 30.0445 46.7386 30.1369H46.7756C47.022 29.447 47.2468 28.9512 47.4501 28.6493C47.6472 28.3598 47.8813 28.1473 48.1523 28.0118C48.4233 27.8763 48.7621 27.8085 49.1687 27.8085C49.5013 27.8085 49.7693 27.8547 49.9726 27.9471V30.1185C49.5598 30.0261 49.1903 29.9799 48.8638 29.9799C48.217 29.9799 47.7119 30.2417 47.3485 30.7652C46.9912 31.2888 46.8125 32.065 46.8125 33.0937ZM60.5203 32.992C60.5203 34.6121 60.0707 35.8841 59.1713 36.8081C58.272 37.7259 57.0277 38.1848 55.4384 38.1848C53.88 38.1848 52.6573 37.7228 51.7702 36.7988C50.8832 35.8748 50.4397 34.6059 50.4397 32.992C50.4397 31.3843 50.8832 30.1215 51.7702 29.2037C52.6573 28.2797 53.8985 27.8178 55.4939 27.8178C57.1262 27.8178 58.3705 28.2643 59.2268 29.1575C60.0891 30.0445 60.5203 31.3227 60.5203 32.992ZM57.8038 32.992C57.8038 31.8032 57.6098 30.9408 57.2217 30.4049C56.8336 29.869 56.27 29.601 55.5308 29.601C54.7424 29.601 54.151 29.8844 53.7568 30.4511C53.3626 31.0116 53.1655 31.8586 53.1655 32.992C53.1655 34.107 53.3564 34.957 53.7383 35.5422C54.1264 36.1212 54.6839 36.4108 55.4107 36.4108C56.2115 36.4108 56.809 36.1274 57.2032 35.5607C57.6036 34.9878 57.8038 34.1316 57.8038 32.992ZM69.0497 34.6737L67.8948 38H65.169L69.9183 24.9811H73.1337L77.8645 38H75.1665L74.0115 34.6737H69.0497ZM71.526 26.9862C71.4644 27.2326 71.3782 27.5282 71.2673 27.8732C71.1564 28.2181 71.0763 28.4615 71.0271 28.6031L69.6596 32.6224H73.4017L71.9972 28.52C71.911 28.2674 71.8309 28.0118 71.757 27.7531C71.6831 27.4944 71.6061 27.2387 71.526 26.9862ZM88.5878 32.9551C88.5878 34.6244 88.2521 35.9149 87.5807 36.8265C86.9154 37.732 85.973 38.1848 84.7533 38.1848C83.3058 38.1848 82.2955 37.5934 81.7227 36.4108H81.6672C81.7042 36.5956 81.7227 37.1561 81.7227 38.0924V41.9269H79.1263V30.3033C79.1263 29.829 79.1201 29.4008 79.1078 29.0189C79.0955 28.637 79.077 28.2982 79.0524 28.0026H81.5748C81.5995 28.0765 81.618 28.2027 81.6303 28.3814C81.6488 28.5539 81.6611 28.751 81.6672 28.9727C81.6795 29.1945 81.6857 29.4132 81.6857 29.6288H81.7227C82.0122 29.0128 82.4249 28.5539 82.9608 28.252C83.4967 27.944 84.1497 27.79 84.9196 27.79C86.0838 27.79 86.9863 28.2397 87.6269 29.139C88.2675 30.0322 88.5878 31.3042 88.5878 32.9551ZM85.8806 32.9551C85.8806 31.834 85.7081 30.9932 85.3631 30.4326C85.0244 29.8721 84.51 29.5918 83.8201 29.5918C83.1302 29.5918 82.6004 29.8936 82.2309 30.4973C81.8674 31.101 81.6857 31.9449 81.6857 33.029C81.6857 34.107 81.8674 34.9416 82.2309 35.533C82.6004 36.1182 83.124 36.4108 83.8016 36.4108C84.4977 36.4108 85.0182 36.1243 85.3631 35.5515C85.7081 34.9724 85.8806 34.107 85.8806 32.9551ZM99.5883 32.9551C99.5883 34.6244 99.2526 35.9149 98.5812 36.8265C97.9159 37.732 96.9735 38.1848 95.7538 38.1848C94.3063 38.1848 93.2961 37.5934 92.7232 36.4108H92.6677C92.7047 36.5956 92.7232 37.1561 92.7232 38.0924V41.9269H90.1268V30.3033C90.1268 29.829 90.1206 29.4008 90.1083 29.0189C90.096 28.637 90.0775 28.2982 90.0529 28.0026H92.5754C92.6 28.0765 92.6185 28.2027 92.6308 28.3814C92.6493 28.5539 92.6616 28.751 92.6677 28.9727C92.6801 29.1945 92.6862 29.4132 92.6862 29.6288H92.7232C93.0127 29.0128 93.4254 28.5539 93.9613 28.252C94.4972 27.944 95.1502 27.79 95.9202 27.79C97.0844 27.79 97.9868 28.2397 98.6274 29.139C99.268 30.0322 99.5883 31.3042 99.5883 32.9551ZM96.8811 32.9551C96.8811 31.834 96.7086 30.9932 96.3637 30.4326C96.0249 29.8721 95.5105 29.5918 94.8206 29.5918C94.1307 29.5918 93.601 29.8936 93.2314 30.4973C92.8679 31.101 92.6862 31.9449 92.6862 33.029C92.6862 34.107 92.8679 34.9416 93.2314 35.533C93.601 36.1182 94.1246 36.4108 94.8021 36.4108C95.4982 36.4108 96.0187 36.1243 96.3637 35.5515C96.7086 34.9724 96.8811 34.107 96.8811 32.9551Z" fill="#45464B"/>
</svg>
